<svg width="63" height="63" viewBox="0 0 63 63" fill="none" xmlns="http://www.w3.org/2000/svg">
<g filter="url(#filter0_d_246_313)">
<circle cx="31.8499" cy="29.85" r="14.28" fill="#1f76e7"/>
</g>
<path d="M37.0117 29.4189H32.4149V24.8221C32.4149 24.5841 32.2219 24.3911 31.9839 24.3911C31.7459 24.3911 31.553 24.5841 31.553 24.8221V29.4189H26.9562C26.7182 29.4189 26.5253 29.6118 26.5253 29.8498C26.5253 30.0878 26.7182 30.2808 26.9562 30.2808H31.553V34.8775C31.553 35.1155 31.7459 35.3085 31.9839 35.3085C32.2219 35.3085 32.4149 35.1155 32.4149 34.8775V30.2808H37.0117C37.2497 30.2808 37.4426 30.0878 37.4426 29.8498C37.4426 29.6118 37.2497 29.4189 37.0117 29.4189Z" fill="white" stroke="white" stroke-width="0.56"/>
<defs>
<filter id="filter0_d_246_313" x="0.769945" y="0.450006" width="62.1601" height="62.16" filterUnits="userSpaceOnUse" color-interpolation-filters="sRGB">
<feFlood flood-opacity="0" result="BackgroundImageFix"/>
<feColorMatrix in="SourceAlpha" type="matrix" values="0 0 0 0 0 0 0 0 0 0 0 0 0 0 0 0 0 0 127 0" result="hardAlpha"/>
<feOffset dy="1.68"/>
<feGaussianBlur stdDeviation="8.4"/>
<feColorMatrix type="matrix" values="0 0 0 0 0 0 0 0 0 0 0 0 0 0 0 0 0 0 0.0784314 0"/>
<feBlend mode="normal" in2="BackgroundImageFix" result="effect1_dropShadow_246_313"/>
<feBlend mode="normal" in="SourceGraphic" in2="effect1_dropShadow_246_313" result="shape"/>
</filter>
</defs>
</svg>
