<svg width="22" height="22" viewBox="0 0 22 22" fill="none" xmlns="http://www.w3.org/2000/svg">
<path d="M16.2006 8.68373C16.3678 8.34283 16.227 7.93093 15.8861 7.76371C15.5452 7.5965 15.1333 7.73729 14.9661 8.07818L13.6275 10.8071C13.2125 11.653 11.993 11.6117 11.6363 10.7397C10.8304 8.76973 8.07542 8.67641 7.13807 10.5873L5.79943 13.3163C5.63221 13.6572 5.773 14.0691 6.11389 14.2363C6.45478 14.4035 6.86669 14.2627 7.03391 13.9218L8.37254 11.1929C8.78746 10.347 10.007 10.3883 10.3637 11.2603C11.1696 13.2303 13.9246 13.3236 14.8619 11.4127L16.2006 8.68373Z" fill="current"/>
<path fill-rule="evenodd" clip-rule="evenodd" d="M15.0916 2.17592C14.0446 2.06249 12.725 2.06249 11.0415 2.0625H10.9585C9.27503 2.06249 7.9554 2.06249 6.90844 2.17592C5.84003 2.29167 4.97435 2.53213 4.23522 3.06914C3.78775 3.39424 3.39424 3.78775 3.06914 4.23522C2.53213 4.97435 2.29167 5.84003 2.17592 6.90844C2.06249 7.95539 2.06249 9.27503 2.0625 10.9585V11.0415C2.06249 12.725 2.06249 14.0446 2.17592 15.0916C2.29167 16.16 2.53213 17.0257 3.06914 17.7648C3.39424 18.2122 3.78775 18.6058 4.23522 18.9309C4.97435 19.4679 5.84003 19.7083 6.90844 19.8241C7.95538 19.9375 9.27498 19.9375 10.9584 19.9375H11.0415C12.7249 19.9375 14.0446 19.9375 15.0916 19.8241C16.16 19.7083 17.0257 19.4679 17.7648 18.9309C18.2122 18.6058 18.6058 18.2122 18.9309 17.7648C19.4679 17.0257 19.7083 16.16 19.8241 15.0916C19.9375 14.0446 19.9375 12.725 19.9375 11.0416V10.9585C19.9375 9.27505 19.9375 7.95538 19.8241 6.90844C19.7083 5.84003 19.4679 4.97435 18.9309 4.23522C18.6058 3.78775 18.2122 3.39424 17.7648 3.06914C17.0257 2.53213 16.16 2.29167 15.0916 2.17592ZM5.04342 4.18154C5.50909 3.84321 6.10512 3.646 7.05654 3.54292C8.02083 3.43844 9.26606 3.4375 11 3.4375C12.7339 3.4375 13.9792 3.43844 14.9435 3.54292C15.8949 3.646 16.4909 3.84321 16.9566 4.18154C17.2873 4.42183 17.5782 4.71269 17.8185 5.04342C18.1568 5.50909 18.354 6.10512 18.4571 7.05654C18.5616 8.02083 18.5625 9.26606 18.5625 11C18.5625 12.7339 18.5616 13.9792 18.4571 14.9435C18.354 15.8949 18.1568 16.4909 17.8185 16.9566C17.5782 17.2873 17.2873 17.5782 16.9566 17.8185C16.4909 18.1568 15.8949 18.354 14.9435 18.4571C13.9792 18.5616 12.7339 18.5625 11 18.5625C9.26606 18.5625 8.02083 18.5616 7.05654 18.4571C6.10512 18.354 5.50909 18.1568 5.04342 17.8185C4.71269 17.5782 4.42183 17.2873 4.18154 16.9566C3.84321 16.4909 3.646 15.8949 3.54292 14.9435C3.43844 13.9792 3.4375 12.7339 3.4375 11C3.4375 9.26606 3.43844 8.02083 3.54292 7.05654C3.646 6.10512 3.84321 5.50909 4.18154 5.04342C4.42183 4.71268 4.71268 4.42183 5.04342 4.18154Z" fill="#
"/>
</svg>
