<svg width="22" height="22" viewBox="0 0 22 22" fill="none" xmlns="http://www.w3.org/2000/svg">
<path opacity="0.4" d="M14.7359 1.83331H17.8397C19.1251 1.83331 20.1667 2.88368 20.1667 4.17995V7.30996C20.1667 8.60623 19.1251 9.65659 17.8397 9.65659H14.7359C13.4505 9.65659 12.4089 8.60623 12.4089 7.30996V4.17995C12.4089 2.88368 13.4505 1.83331 14.7359 1.83331Z" fill="current"/>
<path fill-rule="evenodd" clip-rule="evenodd" d="M4.16023 1.83331H7.26403C8.54945 1.83331 9.59102 2.88368 9.59102 4.17995V7.30996C9.59102 8.60623 8.54945 9.65659 7.26403 9.65659H4.16023C2.87482 9.65659 1.83325 8.60623 1.83325 7.30996V4.17995C1.83325 2.88368 2.87482 1.83331 4.16023 1.83331ZM4.16023 12.3434H7.26403C8.54945 12.3434 9.59102 13.3937 9.59102 14.69V17.82C9.59102 19.1154 8.54945 20.1666 7.26403 20.1666H4.16023C2.87482 20.1666 1.83325 19.1154 1.83325 17.82V14.69C1.83325 13.3937 2.87482 12.3434 4.16023 12.3434ZM17.8396 12.3434H14.7358C13.4504 12.3434 12.4088 13.3937 12.4088 14.69V17.82C12.4088 19.1154 13.4504 20.1666 14.7358 20.1666H17.8396C19.125 20.1666 20.1666 19.1154 20.1666 17.82V14.69C20.1666 13.3937 19.125 12.3434 17.8396 12.3434Z" fill="current"/>
</svg>
