<svg width="48" height="48" viewBox="0 0 48 48" fill="none" xmlns="http://www.w3.org/2000/svg">
<circle cx="24" cy="24" r="24" fill="#FFA949"/>
<circle cx="19" cy="20.0001" r="2" fill="black"/>
<circle cx="29" cy="20.0001" r="2" fill="black"/>
<path fill-rule="evenodd" clip-rule="evenodd" d="M21.618 28.7072C21.0514 28.9444 19.4933 30.4534 19 29.2885C18.4174 27.9128 20.1841 26.89 20.7518 26.6496L21.1871 27.6775C20.7518 26.6496 20.7518 26.6496 20.7518 26.6496L20.7542 26.6486L20.7571 26.6473L20.7643 26.6443C20.7698 26.6421 20.7766 26.6393 20.7846 26.636C20.8007 26.6296 20.8219 26.6212 20.848 26.6112C20.9003 26.5912 20.9724 26.5646 21.0631 26.5339C21.2443 26.4724 21.5005 26.3937 21.821 26.3159C22.4608 26.1605 23.3646 26.0072 24.4451 26.0061C25.5275 26.0051 26.3893 26.1573 26.9944 26.3168C27.2968 26.3965 27.535 26.478 27.7047 26.5431C27.7896 26.5757 27.8574 26.6042 27.9076 26.6263C27.9327 26.6374 27.9534 26.6469 27.9697 26.6545C27.9778 26.6583 27.9849 26.6617 27.9908 26.6645L27.9988 26.6684L28.0022 26.6701L28.0037 26.6708C28.0037 26.6708 28.0051 26.6715 27.5087 27.6714L28.0051 26.6715C28.5573 26.9457 30.8778 28.2386 29.9999 29.2884C29.1219 30.3383 27.5714 28.943 27.0209 28.6754C27.0189 28.6745 27.0142 28.6723 27.0069 28.6691C26.9888 28.6611 26.9547 28.6466 26.905 28.6275C26.8057 28.5894 26.6444 28.5334 26.4253 28.4756C25.9874 28.3601 25.3179 28.2378 24.4473 28.2387C23.5748 28.2395 22.8491 28.3637 22.3476 28.4854C22.0975 28.5461 21.905 28.6058 21.7803 28.6481C21.718 28.6692 21.6729 28.686 21.6461 28.6962C21.6327 28.7013 21.6239 28.7048 21.6199 28.7064L21.618 28.7072Z" fill="black"/>
</svg>
