<svg width="48" height="48" viewBox="0 0 48 48" fill="none" xmlns="http://www.w3.org/2000/svg">
<circle cx="24" cy="24" r="24" fill="#FE9FAB"/>
<path d="M22.8682 20.0808C22.6076 21.1364 20.7955 20.5229 19.6546 20.2412C18.5137 19.9595 16.3546 19.8949 16.6855 18.5543C16.9348 17.5446 19.1061 18.15 20.1098 18.3978C21.1375 18.5828 23.1289 19.0253 22.8682 20.0808Z" fill="black"/>
<path d="M25.3166 19.9669C24.9716 18.9359 26.8305 18.4839 27.9449 18.111C29.0594 17.7381 30.9177 16.6368 31.3558 17.9462C31.6858 18.9325 29.5279 19.5836 28.5474 19.9117C27.5804 20.3056 25.6615 20.998 25.3166 19.9669Z" fill="black"/>
<path d="M32 29.8662C32 33.3154 28 32 24.8812 32C22.0258 32 18 33.3154 18 29.8662C18 26.417 22.3691 23.0089 24.8812 23.0089C27.4132 22.7971 32 26.417 32 29.8662Z" fill="black"/>
</svg>
