<svg width="48" height="48" viewBox="0 0 48 48" fill="none" xmlns="http://www.w3.org/2000/svg">
<circle cx="24" cy="24" r="24" fill="#FEE471"/>
<circle cx="19" cy="19.8025" r="2" fill="black"/>
<path d="M31 19.8025C31 20.9071 30.1046 21.8025 29 21.8025C27.8954 21.8025 27 20.9071 27 19.8025C27 18.6979 27.8954 17.8025 29 17.8025C30.1046 17.8025 31 18.6979 31 19.8025Z" fill="black"/>
<path d="M30 27.8047C30 28.892 26.7073 28.7308 24.6774 28.7308C22.6476 28.7308 19 29.1856 19 27.8047C19 26.7647 22.8916 26.832 24.6774 26.832C26.4774 26.7652 30 26.7175 30 27.8047Z" fill="black"/>
</svg>
