<svg width="5" height="21" viewBox="0 0 5 21" fill="none" xmlns="http://www.w3.org/2000/svg">
<g clip-path="url(#clip0_115_856)">
<path d="M2.4 12.4667C3.72548 12.4667 4.8 11.4518 4.8 10.2C4.8 8.94814 3.72548 7.93332 2.4 7.93332C1.07452 7.93332 0 8.94814 0 10.2C0 11.4518 1.07452 12.4667 2.4 12.4667Z" fill="#909090"/>
<path d="M2.4 4.53333C3.72548 4.53333 4.8 3.51851 4.8 2.26667C4.8 1.01482 3.72548 0 2.4 0C1.07452 0 0 1.01482 0 2.26667C0 3.51851 1.07452 4.53333 2.4 4.53333Z" fill="#909090"/>
<path d="M2.4 20.4C3.72548 20.4 4.8 19.3852 4.8 18.1333C4.8 16.8815 3.72548 15.8667 2.4 15.8667C1.07452 15.8667 0 16.8815 0 18.1333C0 19.3852 1.07452 20.4 2.4 20.4Z" fill="#909090"/>
</g>
<defs>
<clipPath id="clip0_115_856">
<rect width="4.8" height="20.4" fill="white"/>
</clipPath>
</defs>
</svg>
