<?xml version="1.0" encoding="UTF-8"?>
<svg id="_레이어_2" data-name="레이어 2" xmlns="http://www.w3.org/2000/svg" version="1.1" viewBox="0 0 481.89 481.89">
  <defs>
    <style>
      .cls-1 {
        fill: #033248;
        stroke-width: 0px;
      }

      .cls-2, .cls-3 {
        stroke-miterlimit: 10;
      }

      .cls-2, .cls-3, .cls-4, .cls-5, .cls-6 {
        stroke: #033248;
        stroke-width: 6.57px;
      }

      .cls-2, .cls-5 {
        fill: #1F76E7;
      }

      .cls-3, .cls-6 {
        fill: #e9f6fd;
      }

      .cls-4 {
        fill: none;
      }

      .cls-4, .cls-5, .cls-6 {
        stroke-linecap: round;
        stroke-linejoin: round;
      }
    </style>
  </defs>
  <g>
    <g>
      <path class="cls-5" d="M356.86,107.62l-8.98,86.74h31.77l-8.98-86.74c-.86-8.3-12.94-8.3-13.8,0Z"/>
      <circle class="cls-6" cx="363.76" cy="92.9" r="18.12"/>
    </g>
    <g>
      <path class="cls-5" d="M111.23,107.62l-8.98,86.74h31.77l-8.98-86.74c-.86-8.3-12.94-8.3-13.8,0Z"/>
      <circle class="cls-6" cx="118.13" cy="92.9" r="18.12"/>
    </g>
  </g>
  <path class="cls-2" d="M297.43,145.6l3.12,8.04h-119.21l3.12-8.04c3.66-9.46,14.53-15.9,26.83-15.9h59.32c12.3,0,23.16,6.44,26.83,15.9Z"/>
  <path class="cls-3" d="M175.34,375.69l-1.3-2.62c-1.1-2.21.77-4.67,3.53-4.67h126.74c2.77,0,4.63,2.46,3.53,4.67l-1.3,2.62c-4.26,8.57-16.88,14.41-31.16,14.41h-68.89c-14.28,0-26.9-5.84-31.16-14.41Z"/>
  <g>
    <g>
      <g>
        <rect class="cls-3" x="392.98" y="232.56" width="37.22" height="59.95" rx="11.23" ry="11.23" transform="translate(823.18 525.07) rotate(180)"/>
        <rect class="cls-3" x="379.96" y="216.39" width="37.22" height="92.28" rx="15.77" ry="15.77" transform="translate(797.14 525.07) rotate(180)"/>
      </g>
      <g>
        <rect class="cls-3" x="51.69" y="229.54" width="37.22" height="59.95" rx="11.23" ry="11.23"/>
        <rect class="cls-3" x="64.71" y="213.37" width="37.22" height="92.28" rx="15.77" ry="15.77"/>
      </g>
    </g>
    <rect class="cls-2" x="79.64" y="153.64" width="322.62" height="214.76" rx="98.11" ry="98.11"/>
  </g>
  <path class="cls-3" d="M174.95,194.36h131.98c21.36,0,38.7,17.34,38.7,38.7v34.9c0,34.2-27.77,61.97-61.97,61.97h-85.45c-34.2,0-61.97-27.77-61.97-61.97v-34.9c0-21.36,17.34-38.7,38.7-38.7Z"/>
  <g>
    <ellipse class="cls-1" cx="294.21" cy="247.1" rx="15.96" ry="17.56"/>
    <polyline class="cls-4" points="175.42 235.86 203.64 247.1 175.42 258.33"/>
  </g>
  <path class="cls-1" d="M240.95,300.34h0c-8.44,0-15.63-5.37-16.97-12.67l-1.2-6.55c-.39-2.11,1.23-4.05,3.37-4.05h29.58c2.14,0,3.76,1.94,3.37,4.05l-1.2,6.55c-1.33,7.3-8.53,12.67-16.97,12.67Z"/>
</svg>