<svg width="20" height="20" viewBox="0 0 20 20" fill="none" xmlns="http://www.w3.org/2000/svg">
<path d="M11.9225 2.22526H12.6725V2.18254L12.6677 2.1401L11.9225 2.22526ZM11.9225 2.22524L11.1762 2.29987L11.1774 2.3104L11.9225 2.22524ZM11.9225 2.22527H11.1725V2.26268L11.1762 2.2999L11.9225 2.22527ZM12.1015 3.26413L12.7637 2.91209L12.7637 2.91209L12.1015 3.26413ZM13.2769 3.75102L13.4962 4.46823V4.46823L13.2769 3.75102ZM14.138 3.14294L14.613 3.72341L14.613 3.72341L14.138 3.14294ZM14.6158 2.79729L14.9219 3.48198L14.9219 3.48198L14.6158 2.79729ZM15.5209 2.84243L15.1482 3.49326L15.1482 3.49326L15.5209 2.84243ZM15.9618 3.2339L15.4315 3.76423L15.4315 3.76423L15.9618 3.2339ZM16.7659 4.03801L17.3218 3.53455L17.3094 3.5208L17.2963 3.50768L16.7659 4.03801ZM16.7659 4.03802L16.21 4.54148L16.2225 4.55523L16.2356 4.56835L16.7659 4.03802ZM17.1574 4.479L16.5066 4.8517L16.5066 4.85171L17.1574 4.479ZM17.2026 5.38407L17.8873 5.69017V5.69017L17.2026 5.38407ZM16.8569 5.86183L16.2764 5.3869L16.8569 5.86183ZM16.2487 6.7231L15.5315 6.50381L15.5315 6.50381L16.2487 6.7231ZM16.7356 7.89846L17.0877 7.23624L16.7356 7.89846ZM17.7747 8.07745L17.7 8.82372L17.7747 8.07745ZM18.357 8.17085L18.6247 7.47026L18.6247 7.47026L18.357 8.17085ZM18.965 8.84273L19.6888 8.64606L19.6888 8.64605L18.965 8.84273ZM18.965 11.1571L19.6888 11.3537V11.3537L18.965 11.1571ZM18.3568 11.8292L18.6245 12.5298H18.6245L18.3568 11.8292ZM17.7748 11.9225L17.8494 12.6688H17.8494L17.7748 11.9225ZM16.7362 12.1014L17.0882 12.7637L17.0882 12.7637L16.7362 12.1014ZM16.2493 13.277L15.5321 13.4965V13.4965L16.2493 13.277ZM16.8571 14.1378L16.2766 14.6127L16.3003 14.6417L16.3268 14.6681L16.8571 14.1378ZM16.8571 14.1378L17.4376 13.6629L17.4139 13.6339L17.3874 13.6075L16.8571 14.1378ZM17.2026 14.6153L16.518 14.9215L16.518 14.9215L17.2026 14.6153ZM17.1575 15.5206L17.8082 15.8934L17.8082 15.8934L17.1575 15.5206ZM15.521 17.1571L15.1482 16.5062L15.1482 16.5062L15.521 17.1571ZM14.6159 17.2022L14.3098 17.8869L14.3098 17.8869L14.6159 17.2022ZM14.1381 16.8565L14.6131 16.2761L14.6008 16.266L14.5881 16.2565L14.1381 16.8565ZM14.1381 16.8565L13.6632 17.437L13.6755 17.447L13.6881 17.4565L14.1381 16.8565ZM13.2769 16.2484L13.0576 16.9656L13.0576 16.9656L13.2769 16.2484ZM12.1015 16.7353L11.4393 16.3832L11.4393 16.3832L12.1015 16.7353ZM11.9225 17.7745L11.1763 17.6998V17.6998L11.9225 17.7745ZM11.8291 18.357L12.5296 18.6248L12.5296 18.6248L11.8291 18.357ZM11.1573 18.965L10.9606 18.2412H10.9606L11.1573 18.965ZM8.84273 18.965L9.03941 18.2413L9.03941 18.2412L8.84273 18.965ZM8.17085 18.357L8.87144 18.0892L8.87144 18.0892L8.17085 18.357ZM8.07745 17.7747L7.33117 17.8493V17.8493L8.07745 17.7747ZM7.89845 16.7356L8.56067 16.3835L7.89845 16.7356ZM6.72311 16.2487L6.50381 15.5315H6.50381L6.72311 16.2487ZM5.86183 16.8569L5.38685 16.2764L5.37873 16.2832L5.86183 16.8569ZM5.8618 16.8569L6.33678 17.4374L6.3449 17.4306L5.8618 16.8569ZM5.38407 17.2026L5.07798 16.5179L5.07797 16.5179L5.38407 17.2026ZM4.479 17.1574L4.85171 16.5066L4.8517 16.5066L4.479 17.1574ZM4.038 16.7659L3.50767 17.2963H3.50768L4.038 16.7659ZM3.2339 15.9618L3.76423 15.4315L3.74864 15.4159L3.73217 15.4013L3.2339 15.9618ZM3.23389 15.9618L2.70356 16.4921L2.71915 16.5077L2.73562 16.5224L3.23389 15.9618ZM2.84243 15.5209L3.49326 15.1482H3.49326L2.84243 15.5209ZM2.79729 14.6158L2.11261 14.3096L2.1126 14.3096L2.79729 14.6158ZM3.14294 14.138L2.56248 13.6631L2.56247 13.6631L3.14294 14.138ZM3.75102 13.2769L3.03381 13.0576L3.75102 13.2769ZM3.26413 12.1015L3.61618 11.4392L3.61618 11.4392L3.26413 12.1015ZM2.22528 11.9225L2.12931 12.6663L2.13996 12.6677L2.15066 12.6688L2.22528 11.9225ZM2.22526 11.9225L2.32124 11.1787L2.31058 11.1773L2.29989 11.1762L2.22526 11.9225ZM1.6431 11.8291L1.37542 12.5297L1.37542 12.5297L1.6431 11.8291ZM1.03498 11.1572L0.311218 11.3538H0.311218L1.03498 11.1572ZM1.03501 8.84267L1.75875 9.03939L1.75875 9.03939L1.03501 8.84267ZM1.64298 8.17087L1.37522 7.47029L1.37522 7.4703L1.64298 8.17087ZM2.22541 8.07744L2.30004 8.82372H2.30004L2.22541 8.07744ZM3.26474 7.89838L3.6169 8.56056L3.6169 8.56056L3.26474 7.89838ZM3.75152 6.72319L3.03427 6.9424L3.03427 6.9424L3.75152 6.72319ZM3.14317 5.8616L3.72364 5.38667L3.72364 5.38667L3.14317 5.8616ZM2.79733 5.38359L2.1126 5.68961L2.1126 5.68961L2.79733 5.38359ZM2.84246 4.47873L3.49334 4.85136V4.85136L2.84246 4.47873ZM3.23412 4.03754L2.70379 3.50721L2.70379 3.50721L3.23412 4.03754ZM3.23412 4.03754L2.70379 3.50721L3.23412 4.03754ZM4.03812 3.23354L4.56845 3.76387H4.56845L4.03812 3.23354ZM4.47908 2.84206L4.8518 3.49289L4.8518 3.49289L4.47908 2.84206ZM5.38418 2.79692L5.07807 3.48161L5.07807 3.48161L5.38418 2.79692ZM5.86198 3.14264L6.35586 2.57821L6.34652 2.57003L6.33691 2.56217L5.86198 3.14264ZM5.86199 3.14264L5.36811 3.70708L5.37491 3.71302L5.38185 3.71881L5.86199 3.14264ZM5.86199 3.14265L5.38184 3.71884L5.38707 3.72311L5.86199 3.14265ZM6.72297 3.75065L6.94241 3.03347L6.94241 3.03347L6.72297 3.75065ZM7.8986 3.26369L8.56089 3.61565V3.61565L7.8986 3.26369ZM8.07747 2.22515L8.82374 2.29978V2.29978L8.07747 2.22515ZM8.1708 1.64318L7.47017 1.37556L7.47017 1.37556L8.1708 1.64318ZM8.84287 1.03496L8.6463 0.311177V0.311177L8.84287 1.03496ZM11.1572 1.03498L11.3538 0.311218L11.3538 0.311218L11.1572 1.03498ZM11.8291 1.6431L11.1285 1.91077V1.91078L11.8291 1.6431ZM12.6677 2.1401L12.6677 2.14008L11.1774 2.3104L11.1774 2.31042L12.6677 2.1401ZM12.6725 2.22527V2.22526H11.1725V2.22527H12.6725ZM12.7637 2.91209C12.7783 2.93949 12.7628 2.92595 12.7399 2.77972C12.7179 2.63936 12.6985 2.44777 12.6688 2.15064L11.1762 2.2999C11.2042 2.57941 11.228 2.82029 11.258 3.01173C11.287 3.1973 11.3322 3.41487 11.4392 3.61618L12.7637 2.91209ZM13.0576 3.03381C12.9431 3.06881 12.8199 3.01778 12.7637 2.91209L11.4392 3.61618C11.8325 4.35601 12.695 4.71326 13.4962 4.46823L13.0576 3.03381ZM13.6631 2.56248C13.432 2.75158 13.2828 2.87331 13.168 2.95702C13.0484 3.04424 13.0279 3.04288 13.0576 3.03381L13.4962 4.46823C13.7143 4.40155 13.9001 4.27965 14.0518 4.16897C14.2084 4.0548 14.3956 3.90129 14.613 3.72341L13.6631 2.56248ZM14.3096 2.11261C14.0737 2.21807 13.8637 2.39836 13.6631 2.56248L14.613 3.72341C14.737 3.62193 14.8102 3.5623 14.8673 3.51994C14.9204 3.48047 14.9311 3.47784 14.9219 3.48198L14.3096 2.11261ZM15.8936 2.19161C15.4085 1.91381 14.8199 1.88445 14.3096 2.11261L14.9219 3.48198C14.9948 3.44938 15.0789 3.45358 15.1482 3.49326L15.8936 2.19161ZM16.4921 2.70357C16.3089 2.52031 16.1178 2.32002 15.8936 2.19161L15.1482 3.49326C15.1394 3.48823 15.1498 3.49191 15.1987 3.53647C15.2513 3.5843 15.3182 3.65091 15.4315 3.76423L16.4921 2.70357ZM17.2963 3.50768L16.4921 2.70357L15.4315 3.76423L16.2356 4.56834L17.2963 3.50768ZM17.3218 3.53456L17.3218 3.53455L16.21 4.54147L16.21 4.54148L17.3218 3.53456ZM17.8083 4.1063C17.6799 3.88204 17.4795 3.69095 17.2963 3.50769L16.2356 4.56835C16.3489 4.68168 16.4156 4.74857 16.4634 4.80114C16.5079 4.8501 16.5116 4.86049 16.5066 4.8517L17.8083 4.1063ZM17.8873 5.69017C18.1154 5.17989 18.086 4.59134 17.8083 4.10629L16.5066 4.85171C16.5463 4.921 16.5505 5.00508 16.5179 5.07797L17.8873 5.69017ZM17.4374 6.33676C17.6015 6.13615 17.7818 5.92609 17.8873 5.69017L16.5179 5.07797C16.522 5.06873 16.5194 5.07944 16.4799 5.1326C16.4376 5.18966 16.3779 5.26286 16.2764 5.3869L17.4374 6.33676ZM16.966 6.9424C16.9569 6.97208 16.9555 6.95157 17.0428 6.83196C17.1265 6.71716 17.2482 6.56791 17.4374 6.33676L16.2764 5.3869C16.0985 5.60434 15.945 5.79155 15.8308 5.94813C15.7201 6.09992 15.5982 6.28575 15.5315 6.50381L16.966 6.9424ZM17.0877 7.23624C16.982 7.18005 16.931 7.05685 16.966 6.9424L15.5315 6.50381C15.2866 7.30498 15.6438 8.16738 16.3835 8.56067L17.0877 7.23624ZM17.8493 7.33117C17.5521 7.30145 17.3605 7.28201 17.2201 7.26003C17.0738 7.23713 17.0603 7.22166 17.0877 7.23624L16.3835 8.56067C16.5848 8.66772 16.8025 8.71292 16.9881 8.74198C17.1795 8.77195 17.4205 8.79577 17.7 8.82372L17.8493 7.33117ZM18.6247 7.47026C18.3833 7.37801 18.1072 7.35696 17.8493 7.33117L17.7 8.82372C17.8595 8.83967 17.9534 8.84926 18.0238 8.85966C18.0893 8.86934 18.0987 8.87505 18.0892 8.87144L18.6247 7.47026ZM19.6888 8.64605C19.5422 8.10668 19.1468 7.66977 18.6247 7.47026L18.0892 8.87144C18.1638 8.89994 18.2203 8.96236 18.2413 9.03941L19.6888 8.64605ZM19.75 9.43143C19.75 9.17222 19.7565 8.89545 19.6888 8.64606L18.2413 9.0394C18.2386 9.02964 18.2433 9.03959 18.2465 9.10573C18.2498 9.17673 18.25 9.27114 18.25 9.43143H19.75ZM19.75 10.5687V9.43143H18.25V10.5687H19.75ZM19.6888 11.3537C19.7565 11.1044 19.75 10.8278 19.75 10.5687H18.25C18.25 10.7289 18.2498 10.8233 18.2465 10.8942C18.2433 10.9603 18.2386 10.9703 18.2413 10.9605L19.6888 11.3537ZM18.6245 12.5298C19.1468 12.3303 19.5423 11.8932 19.6888 11.3537L18.2413 10.9605C18.2203 11.0376 18.1638 11.1 18.0892 11.1285L18.6245 12.5298ZM17.8494 12.6688C18.1072 12.643 18.3832 12.622 18.6245 12.5298L18.0892 11.1285C18.0987 11.1249 18.0892 11.1306 18.0238 11.1403C17.9535 11.1507 17.8596 11.1603 17.7001 11.1762L17.8494 12.6688ZM17.0882 12.7637C17.0608 12.7782 17.0743 12.7628 17.2205 12.7399C17.3608 12.7179 17.5524 12.6985 17.8494 12.6688L17.7002 11.1762C17.4207 11.2042 17.1799 11.228 16.9885 11.2579C16.803 11.287 16.5855 11.3321 16.3843 11.4391L17.0882 12.7637ZM16.9664 13.0576C16.9314 12.9431 16.9825 12.8198 17.0882 12.7637L16.3843 11.4391C15.6442 11.8323 15.2869 12.6951 15.5321 13.4965L16.9664 13.0576ZM17.4376 13.6629C17.2486 13.4318 17.1269 13.2827 17.0432 13.1679C16.956 13.0484 16.9574 13.0279 16.9664 13.0576L15.5321 13.4965C15.5988 13.7144 15.7206 13.9001 15.8313 14.0518C15.9454 14.2083 16.0988 14.3954 16.2766 14.6127L17.4376 13.6629ZM17.3874 13.6075L17.3874 13.6075L16.3268 14.6681L16.3268 14.6681L17.3874 13.6075ZM17.8873 14.3091C17.7818 14.0733 17.6016 13.8634 17.4376 13.6629L16.2766 14.6127C16.3781 14.7367 16.4377 14.8099 16.48 14.8669C16.5195 14.92 16.5221 14.9307 16.518 14.9215L17.8873 14.3091ZM17.8082 15.8934C18.0862 15.4083 18.1155 14.8195 17.8873 14.3091L16.518 14.9215C16.5506 14.9944 16.5464 15.0785 16.5067 15.1478L17.8082 15.8934ZM17.2965 16.4917C17.4797 16.3085 17.6799 16.1175 17.8082 15.8934L16.5067 15.1478C16.5117 15.139 16.508 15.1494 16.4635 15.1984C16.4157 15.2509 16.3491 15.3178 16.2358 15.431L17.2965 16.4917ZM16.4923 17.2959L17.2965 16.4917L16.2358 15.431L15.4316 16.2352L16.4923 17.2959ZM15.8937 17.8079C16.1179 17.6795 16.309 17.4792 16.4923 17.2959L15.4316 16.2352C15.3183 16.3486 15.2514 16.4152 15.1988 16.463C15.1499 16.5076 15.1395 16.5113 15.1482 16.5062L15.8937 17.8079ZM14.3098 17.8869C14.82 18.115 15.4086 18.0857 15.8937 17.8079L15.1482 16.5062C15.079 16.5459 14.9949 16.5501 14.922 16.5175L14.3098 17.8869ZM13.6632 17.437C13.8638 17.6011 14.0739 17.7814 14.3098 17.8869L14.922 16.5175C14.9312 16.5216 14.9205 16.519 14.8674 16.4795C14.8103 16.4372 14.7371 16.3776 14.6131 16.2761L13.6632 17.437ZM13.6881 17.4565L13.6881 17.4565L14.5881 16.2565L14.5881 16.2565L13.6881 17.4565ZM13.0576 16.9656C13.0279 16.9566 13.0484 16.9552 13.168 17.0424C13.2828 17.1261 13.4321 17.2479 13.6632 17.437L14.6131 16.2761C14.3956 16.0982 14.2084 15.9447 14.0519 15.8305C13.9001 15.7198 13.7143 15.5979 13.4962 15.5312L13.0576 16.9656ZM12.7638 17.0874C12.8199 16.9817 12.9431 16.9306 13.0576 16.9656L13.4962 15.5312C12.695 15.2862 11.8326 15.6434 11.4393 16.3832L12.7638 17.0874ZM12.6688 17.8491C12.6985 17.5519 12.718 17.3602 12.74 17.2198C12.7629 17.0735 12.7783 17.0599 12.7638 17.0874L11.4393 16.3832C11.3323 16.5845 11.2871 16.8022 11.258 16.9878C11.228 17.1793 11.2042 17.4202 11.1763 17.6998L12.6688 17.8491ZM12.5296 18.6248C12.622 18.3833 12.643 18.1071 12.6688 17.8491L11.1763 17.6998C11.1603 17.8594 11.1507 17.9534 11.1403 18.0238C11.1306 18.0893 11.1249 18.0987 11.1285 18.0893L12.5296 18.6248ZM11.3541 19.6887C11.8933 19.5421 12.3301 19.1468 12.5296 18.6248L11.1285 18.0893C11.1 18.1638 11.0376 18.2203 10.9606 18.2412L11.3541 19.6887ZM10.5684 19.75C10.8277 19.75 11.1046 19.7565 11.3541 19.6887L10.9606 18.2412C10.9703 18.2386 10.9604 18.2433 10.8942 18.2465C10.8232 18.2498 10.7288 18.25 10.5684 18.25V19.75ZM9.43143 19.75H10.5684V18.25H9.43143V19.75ZM8.64605 19.6888C8.89544 19.7565 9.17222 19.75 9.43143 19.75V18.25C9.27114 18.25 9.17673 18.2498 9.10573 18.2465C9.03959 18.2433 9.02964 18.2386 9.03941 18.2413L8.64605 19.6888ZM7.47026 18.6247C7.66977 19.1468 8.10668 19.5422 8.64605 19.6888L9.03941 18.2412C8.96236 18.2203 8.89994 18.1638 8.87144 18.0892L7.47026 18.6247ZM7.33117 17.8493C7.35696 18.1072 7.37801 18.3833 7.47026 18.6247L8.87144 18.0892C8.87505 18.0987 8.86934 18.0893 8.85966 18.0238C8.84926 17.9534 8.83967 17.8595 8.82372 17.7L7.33117 17.8493ZM7.23624 17.0877C7.22166 17.0603 7.23713 17.0738 7.26003 17.2201C7.28201 17.3605 7.30145 17.5521 7.33117 17.8493L8.82372 17.7C8.79577 17.4205 8.77195 17.1795 8.74197 16.9881C8.71292 16.8025 8.66772 16.5848 8.56067 16.3835L7.23624 17.0877ZM6.9424 16.966C7.05685 16.931 7.18005 16.982 7.23624 17.0877L8.56067 16.3835C8.16737 15.6438 7.30498 15.2866 6.50381 15.5315L6.9424 16.966ZM6.33676 17.4374C6.56791 17.2482 6.71716 17.1265 6.83196 17.0428C6.95157 16.9555 6.97208 16.9569 6.9424 16.966L6.50381 15.5315C6.28575 15.5982 6.09992 15.7201 5.94813 15.8308C5.79154 15.945 5.60434 16.0985 5.3869 16.2764L6.33676 17.4374ZM6.3449 17.4306L6.34493 17.4306L5.37873 16.2832L5.3787 16.2832L6.3449 17.4306ZM5.69016 17.8873C5.92608 17.7818 6.13614 17.6015 6.33673 17.4374L5.38687 16.2764C5.26284 16.3779 5.18965 16.4376 5.13259 16.4799C5.07943 16.5194 5.06873 16.522 5.07798 16.5179L5.69016 17.8873ZM4.10629 17.8083C4.59134 18.086 5.17989 18.1154 5.69016 17.8873L5.07797 16.5179C5.00507 16.5505 4.921 16.5463 4.85171 16.5066L4.10629 17.8083ZM3.50768 17.2963C3.69095 17.4795 3.88204 17.6798 4.1063 17.8083L4.8517 16.5066C4.86049 16.5116 4.8501 16.5079 4.80113 16.4634C4.74856 16.4156 4.68167 16.3489 4.56833 16.2356L3.50768 17.2963ZM2.70357 16.4922L3.50767 17.2963L4.56833 16.2356L3.76423 15.4315L2.70357 16.4922ZM2.73562 16.5224L2.73563 16.5224L3.73217 15.4013L3.73216 15.4013L2.73562 16.5224ZM2.19161 15.8936C2.32002 16.1178 2.52031 16.3089 2.70356 16.4921L3.76422 15.4315C3.6509 15.3182 3.58429 15.2513 3.53647 15.1987C3.49191 15.1498 3.48823 15.1394 3.49326 15.1482L2.19161 15.8936ZM2.1126 14.3096C1.88445 14.8199 1.91381 15.4085 2.19161 15.8936L3.49326 15.1482C3.45357 15.0789 3.44938 14.9948 3.48197 14.9219L2.1126 14.3096ZM2.56247 13.6631C2.39836 13.8637 2.21807 14.0737 2.11261 14.3096L3.48197 14.9219C3.47784 14.9311 3.48047 14.9204 3.51994 14.8673C3.5623 14.8102 3.62193 14.737 3.72341 14.613L2.56247 13.6631ZM3.03381 13.0576C3.04288 13.0279 3.04424 13.0484 2.95702 13.168C2.87331 13.2828 2.75158 13.432 2.56248 13.6631L3.72341 14.613C3.90129 14.3956 4.0548 14.2084 4.16897 14.0518C4.27965 13.9001 4.40155 13.7143 4.46823 13.4962L3.03381 13.0576ZM2.91209 12.7637C3.01778 12.8199 3.06881 12.9431 3.03381 13.0576L4.46823 13.4962C4.71326 12.695 4.35601 11.8325 3.61618 11.4392L2.91209 12.7637ZM2.15066 12.6688C2.44778 12.6985 2.63937 12.7179 2.77972 12.7399C2.92595 12.7628 2.93949 12.7783 2.91209 12.7637L3.61618 11.4392C3.41487 11.3322 3.1973 11.287 3.01173 11.258C2.8203 11.228 2.57941 11.2042 2.29991 11.1762L2.15066 12.6688ZM2.12928 12.6663L2.12931 12.6663L2.32126 11.1787L2.32124 11.1787L2.12928 12.6663ZM1.37542 12.5297C1.61678 12.622 1.89277 12.643 2.15064 12.6688L2.29989 11.1762C2.14044 11.1603 2.04653 11.1507 1.97623 11.1403C1.91075 11.1306 1.90132 11.1249 1.91077 11.1285L1.37542 12.5297ZM0.311218 11.3538C0.457778 11.8933 0.853231 12.3302 1.37542 12.5297L1.91077 11.1285C1.83618 11.1 1.77968 11.0376 1.75875 10.9605L0.311218 11.3538ZM0.25 10.5686C0.25 10.8278 0.243474 11.1045 0.311218 11.3538L1.75875 10.9605C1.7614 10.9703 1.75666 10.9604 1.75354 10.8942C1.75019 10.8232 1.75 10.7289 1.75 10.5686H0.25ZM0.25 9.4315V10.5686H1.75V9.4315H0.25ZM0.311273 8.64595C0.243469 8.8954 0.25 9.17223 0.25 9.4315H1.75C1.75 9.27118 1.75019 9.17674 1.75354 9.10573C1.75666 9.03957 1.76141 9.02962 1.75875 9.03939L0.311273 8.64595ZM1.37522 7.4703C0.853198 7.66982 0.457859 8.10666 0.311273 8.64595L1.75875 9.03939C1.77969 8.96235 1.83617 8.89995 1.91075 8.87144L1.37522 7.4703ZM2.15078 7.33116C1.8928 7.35696 1.61669 7.37801 1.37522 7.47029L1.91075 8.87144C1.90129 8.87506 1.91072 8.86935 1.97623 8.85966C2.04656 8.84926 2.14051 8.83967 2.30004 8.82372L2.15078 7.33116ZM2.91258 7.2362C2.93999 7.22162 2.92644 7.23709 2.78015 7.26C2.63973 7.28199 2.44805 7.30143 2.15078 7.33116L2.30004 8.82372C2.57967 8.79575 2.82067 8.77193 3.01219 8.74194C3.19785 8.71287 3.41551 8.66766 3.6169 8.56056L2.91258 7.2362ZM3.03427 6.9424C3.06925 7.05684 3.01823 7.18001 2.91258 7.2362L3.6169 8.56056C4.35645 8.16725 4.7136 7.30503 4.46877 6.50397L3.03427 6.9424ZM2.5627 6.33653C2.7519 6.56777 2.8737 6.71707 2.95745 6.83192C3.04471 6.95158 3.04335 6.9721 3.03427 6.9424L4.46877 6.50397C4.4021 6.28583 4.28014 6.09994 4.16942 5.9481C4.05519 5.79146 3.90161 5.6042 3.72364 5.38667L2.5627 6.33653ZM2.1126 5.68961C2.21809 5.92565 2.39849 6.13582 2.5627 6.33653L3.72364 5.38667C3.62209 5.26256 3.56243 5.18933 3.52004 5.13223C3.48055 5.07904 3.47792 5.06833 3.48206 5.07758L2.1126 5.68961ZM2.19158 4.1061C1.91394 4.59106 1.8846 5.17944 2.1126 5.68961L3.48206 5.07758C3.44949 5.0047 3.45368 4.92064 3.49334 4.85136L2.19158 4.1061ZM2.70379 3.50721C2.52043 3.69057 2.32003 3.88173 2.19158 4.1061L3.49334 4.85136C3.48831 4.86015 3.49199 4.84976 3.53657 4.80077C3.58442 4.74817 3.65107 4.68125 3.76445 4.56787L2.70379 3.50721ZM2.70379 3.50721L2.70379 3.50721L3.76445 4.56787L3.76445 4.56787L2.70379 3.50721ZM3.50779 2.70321L2.70379 3.50721L3.76445 4.56787L4.56845 3.76387L3.50779 2.70321ZM3.50779 2.70321L3.50779 2.70321L4.56845 3.76387L4.56845 3.76387L3.50779 2.70321ZM4.10637 2.19123C3.88213 2.31964 3.69105 2.51995 3.50779 2.70321L4.56845 3.76387C4.68177 3.65055 4.74867 3.58393 4.80123 3.5361C4.8502 3.49154 4.86059 3.48786 4.8518 3.49289L4.10637 2.19123ZM5.69029 2.11223C5.18 1.88409 4.59143 1.91345 4.10637 2.19123L4.8518 3.49289C4.92109 3.45321 5.00518 3.44901 5.07807 3.48161L5.69029 2.11223ZM6.33691 2.56217C6.13628 2.39802 5.9262 2.2177 5.69029 2.11223L5.07807 3.48161C5.06882 3.47747 5.07953 3.4801 5.13271 3.51958C5.18979 3.56195 5.26299 3.6216 5.38706 3.72311L6.33691 2.56217ZM6.35587 2.57821L6.35586 2.57821L5.36811 3.70707L5.36811 3.70708L6.35587 2.57821ZM6.34213 2.56648L6.34213 2.56648L5.38185 3.71881L5.38186 3.71881L6.34213 2.56648ZM6.94241 3.03347C6.97209 3.04255 6.95158 3.0439 6.832 2.95668C6.71722 2.87297 6.56801 2.75125 6.33692 2.56218L5.38707 3.72311C5.60445 3.90097 5.79159 4.05445 5.94812 4.16861C6.09984 4.27926 6.28558 4.40114 6.50354 4.46783L6.94241 3.03347ZM7.23631 2.91173C7.18013 3.01744 7.05689 3.06849 6.94241 3.03347L6.50354 4.46783C7.30491 4.71302 8.16761 4.35568 8.56089 3.61565L7.23631 2.91173ZM7.33119 2.15053C7.30148 2.44756 7.28205 2.63908 7.26009 2.7794C7.23721 2.92558 7.22176 2.93912 7.23631 2.91173L8.56089 3.61565C8.66784 3.41439 8.713 3.19689 8.74204 3.01138C8.772 2.82 8.7958 2.5792 8.82374 2.29978L7.33119 2.15053ZM7.47017 1.37556C7.378 1.61686 7.35697 1.89275 7.33119 2.15053L8.82374 2.29978C8.83968 2.14038 8.84926 2.04651 8.85965 1.97623C8.86933 1.91077 8.87504 1.90134 8.87143 1.91079L7.47017 1.37556ZM8.6463 0.311177C8.10673 0.457718 7.66967 0.853257 7.47017 1.37556L8.87142 1.9108C8.89993 1.83618 8.96236 1.77967 9.03944 1.75874L8.6463 0.311177ZM9.43124 0.25C9.17218 0.25 8.89557 0.243479 8.6463 0.311177L9.03944 1.75874C9.02968 1.76139 9.03963 1.75665 9.10573 1.75354C9.17669 1.75019 9.27105 1.75 9.43124 1.75V0.25ZM10.5686 0.25H9.43124V1.75H10.5686V0.25ZM11.3538 0.311218C11.1045 0.243475 10.8278 0.25 10.5686 0.25V1.75C10.7289 1.75 10.8233 1.75019 10.8942 1.75354C10.9604 1.75666 10.9703 1.7614 10.9605 1.75875L11.3538 0.311218ZM12.5297 1.37542C12.3302 0.853232 11.8933 0.457778 11.3538 0.311218L10.9605 1.75875C11.0376 1.77968 11.1 1.83618 11.1285 1.91077L12.5297 1.37542ZM12.6688 2.15061C12.643 1.89276 12.622 1.61678 12.5297 1.37542L11.1285 1.91078C11.1249 1.90132 11.1306 1.91075 11.1403 1.97623C11.1507 2.04652 11.1603 2.14042 11.1762 2.29986L12.6688 2.15061ZM12.85 10C12.85 11.5741 11.5741 12.85 10 12.85V14.35C12.4025 14.35 14.35 12.4025 14.35 10H12.85ZM10 7.15004C11.5741 7.15004 12.85 8.42603 12.85 10H14.35C14.35 7.5976 12.4025 5.65004 10 5.65004V7.15004ZM7.15004 10C7.15004 8.42603 8.42603 7.15004 10 7.15004V5.65004C7.5976 5.65004 5.65004 7.5976 5.65004 10H7.15004ZM10 12.85C8.42603 12.85 7.15004 11.5741 7.15004 10H5.65004C5.65004 12.4025 7.5976 14.35 10 14.35V12.85Z" fill="current"/>
</svg>
